<svg width="24" height="24" viewBox="0 0 24 24" fill="none" xmlns="http://www.w3.org/2000/svg">
<path d="M14.412 17.6282C14.412 17.8414 14.4967 18.0459 14.6475 18.1967C14.7983 18.3475 15.0028 18.4322 15.216 18.4322C15.4293 18.4322 15.6338 18.3475 15.7846 18.1967C15.9353 18.0459 16.0201 17.8414 16.0201 17.6282C16.0201 17.415 15.9353 17.2105 15.7846 17.0597C15.6338 16.9089 15.4293 16.8242 15.216 16.8242C15.0028 16.8242 14.7983 16.9089 14.6475 17.0597C14.4967 17.2105 14.412 17.415 14.412 17.6282Z" stroke="#2C2E33" stroke-width="1.5" stroke-linecap="round" stroke-linejoin="round"/>
<path d="M19.9397 20.3918C19.9397 21.2799 19.2198 22 18.3316 22H5.66837C4.78028 22 4.06033 21.2799 4.06033 20.392V3.60803C4.06033 2.71995 4.78028 2 5.66837 2H18.3316C19.2198 2 19.9397 2.71995 19.9397 3.60803V20.3918Z" stroke="#2C2E33" stroke-width="1.5" stroke-linecap="round" stroke-linejoin="round"/>
<path d="M16.8741 12.8691H7.12616V4.75177H16.8741V12.8691Z" stroke="#2C2E33" stroke-width="1.5" stroke-linecap="round" stroke-linejoin="round"/>
<path d="M8.99913 18.9988V16.2567" stroke="#2C2E33" stroke-width="1.5" stroke-linecap="round" stroke-linejoin="round"/>
<path d="M7.62799 17.628H10.3701" stroke="#2C2E33" stroke-width="1.5" stroke-linecap="round" stroke-linejoin="round"/>
</svg>
