<svg width="24" height="24" viewBox="0 0 24 24" fill="none" xmlns="http://www.w3.org/2000/svg">
<path d="M2.14285 4.74002H4.90285C5.09358 4.73904 5.27898 4.803 5.42853 4.9214C5.57809 5.03979 5.68288 5.20556 5.72571 5.39144L6.59999 8.82002L15.1714 7.10573C16.0835 6.92686 17.0237 6.95117 17.9252 7.17692C18.827 7.40268 19.6676 7.82434 20.3878 8.41191C21.108 8.99947 21.6898 9.7385 22.0918 10.5764C22.494 11.4144 22.7064 12.3306 22.7143 13.26C22.7143 13.7147 22.5336 14.1507 22.2122 14.4722C21.8907 14.7937 21.4546 14.9743 21 14.9743H13.4571L11.7428 17.6829C11.4331 18.1658 11.0071 18.5631 10.5039 18.8386C10.0008 19.1141 9.43652 19.259 8.86285 19.26H6.97713C6.83056 19.2588 6.68673 19.2201 6.5594 19.1475C6.43206 19.0749 6.32547 18.971 6.2498 18.8453C6.17415 18.7198 6.13192 18.577 6.12721 18.4305C6.12249 18.2841 6.15543 18.1387 6.22285 18.0086L7.73142 15.0257H2.99999C2.54533 15.0257 2.1093 14.8451 1.7878 14.5236C1.46632 14.2021 1.28571 13.7661 1.28571 13.3114V5.59716C1.28571 5.36983 1.37601 5.15181 1.53676 4.99106C1.6975 4.83031 1.91552 4.74002 2.14285 4.74002Z" stroke="#2C2E33" stroke-width="1.5" stroke-linecap="round" stroke-linejoin="round"/>
</svg>
