<?xml version="1.0" encoding="utf-8"?>
<!-- Generator: Adobe Illustrator 25.0.0, SVG Export Plug-In . SVG Version: 6.00 Build 0)  -->
<svg version="1.1" id="圖層_1" xmlns="http://www.w3.org/2000/svg" xmlns:xlink="http://www.w3.org/1999/xlink" x="0px" y="0px"
	 viewBox="0 0 21.5 21.5" style="enable-background:new 0 0 21.5 21.5;" xml:space="preserve">
<style type="text/css">
	.st0{fill:none;stroke:#2C2E33;stroke-width:1.5;stroke-linecap:round;stroke-linejoin:round;}
</style>
<g>
	<path class="st0" d="M11.1,7.2C11,7,10.8,6.8,10.7,6.6c-0.4-0.4-0.9-0.7-1.5-0.7H7.5c-1,0-1.8,0.8-1.8,1.8c0,0.9,0.6,1.6,1.4,1.8
		L9.6,10c0.9,0.2,1.6,1,1.6,2c0,1.1-0.9,2.1-2.1,2.1H7.8c-0.9,0-1.7-0.6-1.9-1.4"/>
	<path class="st0" d="M8.4,5.9V3.8"/>
	<path class="st0" d="M8.4,16.1v-2.1"/>
	<path class="st0" d="M18.4,0.8H3.8C3,0.8,2.2,1.1,1.7,1.7C1.1,2.2,0.8,3,0.8,3.8v16.9l3.8-2.3l3.8,2.3l3.8-2.3l3.8,2.3V3.1
		c0-0.6,0.2-1.2,0.7-1.6C17.2,1,17.8,0.8,18.4,0.8z M18.4,0.8c0.6,0,1.2,0.2,1.6,0.7c0.4,0.4,0.7,1,0.7,1.6v5.4h-4.6"/>
</g>
</svg>
