<svg width="45" height="44" viewBox="0 0 45 44" fill="none" xmlns="http://www.w3.org/2000/svg">
<path d="M0.5 22C0.5 9.84974 10.3497 0 22.5 0C34.6503 0 44.5 9.84974 44.5 22C44.5 34.1503 34.6503 44 22.5 44C10.3497 44 0.5 34.1503 0.5 22Z" fill="#F4F6F9"/>
<path d="M13.3854 18.8487C14.058 16.1398 16.206 14.0453 18.9306 13.4416L19.3844 13.341C21.4366 12.8863 23.5634 12.8863 25.6156 13.341L26.0694 13.4416C28.794 14.0453 30.942 16.1398 31.6146 18.8488C32.1285 20.9182 32.1285 23.0819 31.6146 25.1512C30.942 27.8602 28.794 29.9547 26.0694 30.5584L25.6156 30.659C23.5634 31.1137 21.4366 31.1137 19.3844 30.659L18.9306 30.5584C16.206 29.9547 14.058 27.8602 13.3854 25.1513C12.8715 23.0819 12.8715 20.9181 13.3854 18.8487Z" stroke="url(#paint0_linear_2324_18520)" stroke-width="1.5"/>
<path fill-rule="evenodd" clip-rule="evenodd" d="M22.5002 17C22.8826 17 23.1926 17.292 23.1926 17.6522V18.1857H23.2692C24.5567 18.1857 25.5 19.2401 25.5 20.4189C25.5 20.7791 25.19 21.0711 24.8077 21.0711C24.4253 21.0711 24.1154 20.7791 24.1154 20.4189C24.1154 19.8514 23.6811 19.4901 23.2692 19.4901H23.1926V21.5432L24.1273 21.8634C24.9767 22.1544 25.5 22.9457 25.5 23.7838C25.5 24.8506 24.6451 25.8142 23.4666 25.8142H23.1926V26.3478C23.1926 26.708 22.8826 27 22.5002 27C22.1179 27 21.8079 26.708 21.8079 26.3478V25.8142H21.7308C20.4433 25.8142 19.5 24.7598 19.5 23.581C19.5 23.2208 19.81 22.9288 20.1923 22.9288C20.5747 22.9288 20.8846 23.2208 20.8846 23.581C20.8846 24.1486 21.3189 24.5098 21.7308 24.5098H21.8079V22.4568L20.8727 22.1365C20.0233 21.8455 19.5 21.0542 19.5 20.2161C19.5 19.1493 20.3549 18.1857 21.5334 18.1857H21.8079V17.6522C21.8079 17.292 22.1179 17 22.5002 17ZM21.8079 19.4901H21.5334C21.2306 19.4901 20.8846 19.7606 20.8846 20.2161C20.8846 20.5645 21.1001 20.8265 21.3459 20.9107L21.8079 21.0689V19.4901ZM23.1926 22.9312V24.5098H23.4666C23.7694 24.5098 24.1154 24.2394 24.1154 23.7838C24.1154 23.4355 23.8999 23.1735 23.6541 23.0893L23.1926 22.9312Z" fill="url(#paint1_linear_2324_18520)"/>
<defs>
<linearGradient id="paint0_linear_2324_18520" x1="13.5789" y1="15.25" x2="31.6993" y2="15.514" gradientUnits="userSpaceOnUse">
<stop stop-color="#4E86E1"/>
<stop offset="1" stop-color="#394EC9"/>
</linearGradient>
<linearGradient id="paint1_linear_2324_18520" x1="19.6828" y1="18.25" x2="25.4059" y2="18.2974" gradientUnits="userSpaceOnUse">
<stop stop-color="#4E86E1"/>
<stop offset="1" stop-color="#394EC9"/>
</linearGradient>
</defs>
</svg>
