<?xml version="1.0" encoding="utf-8"?>
<!-- Generator: Adobe Illustrator 25.0.0, SVG Export Plug-In . SVG Version: 6.00 Build 0)  -->
<svg version="1.1" id="圖層_1" xmlns="http://www.w3.org/2000/svg" xmlns:xlink="http://www.w3.org/1999/xlink" x="0px" y="0px"
	 viewBox="0 0 21.5 17.5" style="enable-background:new 0 0 21.5 17.5;" xml:space="preserve">
<style type="text/css">
	.st0{fill:none;stroke:#2C2E33;stroke-width:1.5;}
	.st1{fill:none;stroke:#2C2E33;stroke-width:1.5;stroke-linecap:round;}
</style>
<path class="st0" d="M0.8,8.8c0-3.8,0-5.7,1.2-6.8C3.1,0.8,5,0.8,8.8,0.8h4c3.8,0,5.7,0,6.8,1.2c1.2,1.2,1.2,3.1,1.2,6.8
	s0,5.7-1.2,6.8c-1.2,1.2-3.1,1.2-6.8,1.2h-4c-3.8,0-5.7,0-6.8-1.2C0.8,14.4,0.8,12.5,0.8,8.8z"/>
<path class="st1" d="M8.8,12.8h-4 M12.8,12.8h-1.5 M0.8,6.8h20"/>
</svg>
