<svg width="24" height="24" viewBox="0 0 24 24" fill="none" xmlns="http://www.w3.org/2000/svg">
<path d="M20.5842 22.145H5.75693C5.13602 22.145 4.54052 21.8984 4.10148 21.4594C3.66244 21.0203 3.41577 20.4247 3.41577 19.8038C3.41577 19.183 3.66244 18.5874 4.10148 18.1483C4.54052 17.7093 5.13602 17.4627 5.75693 17.4627H19.0235C19.4374 17.4627 19.8344 17.2982 20.1271 17.0055C20.4197 16.7129 20.5842 16.3159 20.5842 15.9019V3.41577C20.5842 3.00182 20.4197 2.60484 20.1271 2.31213C19.8344 2.01943 19.4374 1.855 19.0235 1.855H5.75693C5.14668 1.85478 4.56047 2.09285 4.12317 2.51849C3.68586 2.94413 3.43205 3.52369 3.41577 4.13372V19.7414" stroke="#2C2E33" stroke-width="1.5" stroke-linecap="round" stroke-linejoin="round"/>
<path d="M19.0235 17.4627V22.145" stroke="#2C2E33" stroke-width="1.5" stroke-linecap="round" stroke-linejoin="round"/>
<path d="M13.6411 8.8815H17.2543L13.4153 14.3014H17.4802" stroke="#2C2E33" stroke-width="1.5" stroke-linecap="round" stroke-linejoin="round"/>
<path d="M6.5556 10.4166L8.21941 5.42521C8.30471 5.16932 8.54416 4.99673 8.8139 4.99673C9.08363 4.99673 9.3231 5.16932 9.40838 5.42521L11.0722 10.4166M7.15781 8.61001H10.47" stroke="#2C2E33" stroke-width="1.5" stroke-linecap="round" stroke-linejoin="round"/>
</svg>
