<?xml version="1.0" encoding="utf-8"?>
<!-- Generator: Adobe Illustrator 25.0.0, SVG Export Plug-In . SVG Version: 6.00 Build 0)  -->
<svg version="1.1" id="圖層_1" xmlns="http://www.w3.org/2000/svg" xmlns:xlink="http://www.w3.org/1999/xlink" x="0px" y="0px"
	 viewBox="0 0 24 24" style="enable-background:new 0 0 24 24;" xml:space="preserve">
<style type="text/css">
	.st0{fill:none;}
	.st1{fill:none;stroke:#2C2E33;stroke-width:1.5;stroke-linecap:round;stroke-linejoin:round;}
</style>
<rect class="st0" width="24" height="24"/>
<path class="st1" d="M0,4.2l4.1,2.2l3.7-0.6c1.2-0.2,2.5,0.1,3.4,1"/>
<path class="st1" d="M20,15.8l-5.8,4.1c-1.3,0.9-3,0.9-4.3,0L0,13.2"/>
<path class="st1" d="M24,13.1l-4.1,2.8l-6.4-5.1l-2.3,1.7c-1,0.7-2.3,0.5-3-0.4c-0.7-0.9-0.6-2.3,0.3-3l2.4-2c1.2-1,2.7-1.4,4.2-1.3
	l3.8,0.4L24,3.4"/>
<path class="st1" d="M13.5,10.8c1.5,1.4,3.7,0.7,4.5-0.4"/>
</svg>
