<?xml version="1.0" encoding="utf-8"?>
<!-- Generator: Adobe Illustrator 25.0.0, SVG Export Plug-In . SVG Version: 6.00 Build 0)  -->
<svg version="1.1" id="圖層_1" xmlns="http://www.w3.org/2000/svg" xmlns:xlink="http://www.w3.org/1999/xlink" x="0px" y="0px"
	 viewBox="0 0 20.5 19.5" style="enable-background:new 0 0 20.5 19.5;" xml:space="preserve">
<style type="text/css">
	.st0{fill:none;stroke:#363853;stroke-width:1.5;}
	.st1{fill-rule:evenodd;clip-rule:evenodd;fill:#363853;}
</style>
<path class="st0" d="M1.1,6.6C1.8,3.9,4,1.8,6.7,1.2l0.5-0.1c2.1-0.5,4.2-0.5,6.2,0l0.5,0.1c2.7,0.6,4.9,2.7,5.5,5.4
	c0.5,2.1,0.5,4.2,0,6.3c-0.7,2.7-2.8,4.8-5.5,5.4l-0.5,0.1c-2.1,0.5-4.2,0.5-6.2,0l-0.5-0.1c-2.7-0.6-4.9-2.7-5.5-5.4
	C0.6,10.8,0.6,8.7,1.1,6.6z"/>
<path class="st1" d="M10.3,4.7c0.4,0,0.7,0.3,0.7,0.7v0.5H11c1.3,0,2.2,1.1,2.2,2.2c0,0.4-0.3,0.7-0.7,0.7c-0.4,0-0.7-0.3-0.7-0.7
	c0-0.6-0.4-0.9-0.8-0.9h-0.1v2.1l0.9,0.3c0.8,0.3,1.4,1.1,1.4,1.9c0,1.1-0.9,2-2,2h-0.3v0.5c0,0.4-0.3,0.7-0.7,0.7
	c-0.4,0-0.7-0.3-0.7-0.7v-0.5H9.5c-1.3,0-2.2-1.1-2.2-2.2c0-0.4,0.3-0.7,0.7-0.7c0.4,0,0.7,0.3,0.7,0.7c0,0.6,0.4,0.9,0.8,0.9h0.1
	v-2.1L8.6,9.9C7.8,9.6,7.2,8.8,7.2,8c0-1.1,0.9-2,2-2h0.3V5.4C9.6,5,9.9,4.7,10.3,4.7z M9.6,7.2H9.3C9,7.2,8.6,7.5,8.6,8
	c0,0.3,0.2,0.6,0.5,0.7l0.5,0.2V7.2z M10.9,10.7v1.6h0.3c0.3,0,0.6-0.3,0.6-0.7c0-0.3-0.2-0.6-0.5-0.7L10.9,10.7z"/>
</svg>
