<svg width="20" height="20" viewBox="0 0 20 20" fill="none" xmlns="http://www.w3.org/2000/svg">
<path d="M1.78557 3.94923H4.08557C4.24452 3.94841 4.39902 4.00171 4.52365 4.10038C4.64827 4.19904 4.7356 4.33718 4.77129 4.49208L5.49986 7.34923L12.6427 5.92066C13.4028 5.7716 14.1863 5.79186 14.9376 5.97998C15.689 6.16811 16.3896 6.5195 16.9897 7.00914C17.5899 7.49877 18.0747 8.11463 18.4097 8.81291C18.7449 9.5112 18.9219 10.2747 18.9284 11.0492C18.9284 11.4281 18.7779 11.7915 18.51 12.0594C18.2421 12.3273 17.8787 12.4778 17.4999 12.4778H11.2141L9.78557 14.7349C9.52743 15.1374 9.17245 15.4685 8.75315 15.6981C8.33385 15.9276 7.86363 16.0484 7.38558 16.0492H5.81415C5.692 16.0482 5.57215 16.0159 5.46603 15.9555C5.35992 15.8949 5.27109 15.8084 5.20803 15.7036C5.14499 15.5991 5.1098 15.4801 5.10587 15.3579C5.10195 15.2359 5.12939 15.1148 5.18558 15.0064L6.44272 12.5207H2.49986C2.12097 12.5207 1.75762 12.3701 1.4897 12.1022C1.2218 11.8343 1.07129 11.471 1.07129 11.0921V4.66351C1.07129 4.47407 1.14654 4.29239 1.2805 4.15843C1.41445 4.02447 1.59613 3.94923 1.78557 3.94923Z" stroke="url(#paint0_linear_2161_94782)" stroke-width="1.5" stroke-linecap="round" stroke-linejoin="round"/>
<defs>
<linearGradient id="paint0_linear_2161_94782" x1="1.61541" y1="5.46172" x2="18.6424" y2="5.80853" gradientUnits="userSpaceOnUse">
<stop stop-color="#4E86E1"/>
<stop offset="1" stop-color="#394EC9"/>
</linearGradient>
</defs>
</svg>
