<svg width="64" height="64" viewBox="0 0 64 64" fill="none" xmlns="http://www.w3.org/2000/svg">
<path d="M21.36 44.7692C21.6471 46.1125 22.0081 47.439 22.4414 48.7425C22.8586 49.9333 23.4277 51.0654 24.1347 52.1105C24.7806 53.072 25.5718 53.9275 26.48 54.6465C27.3161 55.3114 28.2631 55.8232 29.2774 56.1585C30.1056 56.3869 30.9624 56.4947 31.8214 56.4785M29.9014 26.6372C31.2707 29.0292 29.78 33.5918 27.9814 36.9785C26.5981 39.8266 24.4577 42.2391 21.7947 43.9518C19.682 45.2403 17.2352 45.8745 14.7627 45.7745C12.5977 45.734 10.5074 44.9757 8.82003 43.6185C7.25847 42.2304 6.28046 40.3025 6.0827 38.2225C5.79213 35.7868 6.2903 33.3221 7.50403 31.1905C8.89436 28.8607 10.8906 26.9516 13.28 25.6665C15.6973 24.5006 18.3673 23.9562 21.048 24.0825C24.3 24.0238 28.532 24.2438 29.9014 26.6372ZM34.0987 26.6252C32.7294 29.0172 34.22 33.5812 36.0187 36.9678C37.402 39.8159 39.5424 42.2284 42.2054 43.9412C44.318 45.2296 46.7648 45.8638 49.2374 45.7638C51.403 45.7233 53.4938 44.9644 55.1814 43.6065C56.7424 42.2182 57.72 40.2903 57.9174 38.2105C58.2076 35.7753 57.7095 33.3111 56.496 31.1798C55.1057 28.85 53.1095 26.9409 50.72 25.6558C48.3029 24.4895 45.6329 23.9446 42.952 24.0705C39.7014 24.0118 35.4694 24.2332 34.0987 26.6252Z" stroke="#A1ACB9" stroke-width="1.33333" stroke-linecap="round" stroke-linejoin="round"/>
<path d="M31.8199 56.4785C32.6797 56.4949 33.5375 56.3872 34.3665 56.1585C35.3803 55.823 36.3268 55.3112 37.1625 54.6465C38.0703 53.9274 38.861 53.0719 39.5065 52.1105C40.2144 51.0655 40.7845 49.9334 41.2025 48.7425C41.6353 47.4389 41.9959 46.1124 42.2825 44.7691H21.3599M23.1585 50.1785H40.4465M27.1945 39.0438H36.8305M25.3612 24.0345C24.4286 22.6302 23.6134 21.1514 22.9239 19.6131C22.513 18.5754 22.4693 17.4285 22.7999 16.3625C23.0958 14.9432 23.7308 13.6165 24.6505 12.4958C25.8614 11.1838 27.4376 10.2647 29.1759 9.85713C31.0215 9.42043 32.9463 9.44562 34.7799 9.93046C36.4642 10.3231 37.9955 11.2033 39.1825 12.4611C40.0908 13.5953 40.7235 14.9249 41.0305 16.3451C41.4023 17.4277 41.4065 18.6026 41.0425 19.6878C40.4042 21.1947 39.6134 22.6324 38.6825 23.9785M26.2719 10.6131L23.2279 7.52246M37.5732 10.6745L40.6172 7.58113" stroke="#A1ACB9" stroke-width="1.33333" stroke-linecap="round" stroke-linejoin="round"/>
</svg>
