<svg width="24" height="24" viewBox="0 0 24 24" fill="none" xmlns="http://www.w3.org/2000/svg">
<path d="M18.2308 3H5.76923C5.00453 3 4.38461 3.61991 4.38461 4.38462V17.5385C4.38461 18.3032 5.00453 18.9231 5.76923 18.9231H18.2308C18.9955 18.9231 19.6154 18.3032 19.6154 17.5385V4.38462C19.6154 3.61991 18.9955 3 18.2308 3Z" stroke="#2C2E33" stroke-width="1.5" stroke-linecap="round" stroke-linejoin="round"/>
<path d="M7.15375 18.923V20.9999" stroke="#2C2E33" stroke-width="1.5" stroke-linecap="round" stroke-linejoin="round"/>
<path d="M16.8459 18.923V20.9999" stroke="#2C2E33" stroke-width="1.5" stroke-linecap="round" stroke-linejoin="round"/>
<path d="M4.38461 12.0002H19.6154" stroke="#2C2E33" stroke-width="1.5" stroke-linecap="round" stroke-linejoin="round"/>
<path d="M7.84609 15.8076C7.65491 15.8076 7.49993 15.6527 7.49993 15.4615C7.49993 15.2703 7.65491 15.1153 7.84609 15.1153" stroke="#2C2E33" stroke-width="1.5" stroke-linecap="round" stroke-linejoin="round"/>
<path d="M7.84602 15.8076C8.0372 15.8076 8.19218 15.6526 8.19218 15.4614C8.19218 15.2703 8.0372 15.1153 7.84602 15.1153" stroke="#2C2E33" stroke-width="1.5" stroke-linecap="round" stroke-linejoin="round"/>
<path d="M16.1538 15.8076C15.9627 15.8076 15.8077 15.6527 15.8077 15.4615C15.8077 15.2703 15.9627 15.1153 16.1538 15.1153" stroke="#2C2E33" stroke-width="1.5" stroke-linecap="round" stroke-linejoin="round"/>
<path d="M16.1538 15.8076C16.345 15.8076 16.4999 15.6526 16.4999 15.4614C16.4999 15.2703 16.345 15.1153 16.1538 15.1153" stroke="#2C2E33" stroke-width="1.5" stroke-linecap="round" stroke-linejoin="round"/>
</svg>
