<?xml version="1.0" encoding="utf-8"?>
<!-- Generator: Adobe Illustrator 25.0.0, SVG Export Plug-In . SVG Version: 6.00 Build 0)  -->
<svg version="1.1" id="圖層_1" xmlns="http://www.w3.org/2000/svg" xmlns:xlink="http://www.w3.org/1999/xlink" x="0px" y="0px"
	 viewBox="0 0 19.5 19.1" style="enable-background:new 0 0 19.5 19.1;" xml:space="preserve">
<style type="text/css">
	.st0{fill:#363853;}
	.st1{fill:none;stroke:#363853;stroke-width:1.5;stroke-linecap:round;}
</style>
<path class="st0" d="M1.1,12.6l0.7-0.2L1.1,12.6z M1.1,6.6l0.7,0.2L1.1,6.6z M18.4,6.6l-0.7,0.2L18.4,6.6z M18.4,12.6l-0.7-0.2
	L18.4,12.6z M12.8,18l-0.2-0.7L12.8,18z M6.7,18l-0.2,0.7L6.7,18z M6.7,1.1l0.2,0.7L6.7,1.1z M12.8,1.1l-0.2,0.7L12.8,1.1z
	 M1.8,12.4c-0.4-1.9-0.4-3.8,0-5.6L0.4,6.4c-0.5,2.1-0.5,4.2,0,6.3L1.8,12.4z M17.7,6.8c0.4,1.9,0.4,3.8,0,5.6l1.5,0.3
	c0.5-2.1,0.5-4.2,0-6.3L17.7,6.8z M12.6,17.3c-1.9,0.4-3.9,0.4-5.8,0l-0.3,1.5c2.1,0.5,4.3,0.5,6.4,0L12.6,17.3z M6.9,1.8
	c1.9-0.4,3.9-0.4,5.8,0L13,0.4c-2.1-0.5-4.3-0.5-6.4,0L6.9,1.8z M6.9,17.3c-2.5-0.6-4.5-2.5-5-4.9l-1.5,0.3c0.7,3,3.1,5.3,6.2,6
	L6.9,17.3z M13,18.8c3-0.7,5.4-3,6.2-6l-1.5-0.3c-0.6,2.4-2.5,4.4-5,4.9L13,18.8z M12.6,1.8c2.5,0.6,4.5,2.5,5,4.9l1.5-0.3
	c-0.7-3-3.1-5.3-6.2-6L12.6,1.8z M6.5,0.4c-3,0.7-5.4,3-6.2,6l1.5,0.3c0.6-2.4,2.5-4.4,5-4.9L6.5,0.4z M12.6,18.7
	c0-1.5,0-2.5,0.1-3.3c0.1-0.7,0.3-1.1,0.6-1.4L12.2,13c-0.6,0.6-0.9,1.4-1,2.3c-0.1,0.9-0.1,2-0.1,3.5H12.6z M18.1,11.9
	c-1.5,0-2.6,0-3.5,0.1c-0.9,0.1-1.7,0.4-2.3,1l1.1,1.1c0.3-0.3,0.7-0.5,1.5-0.6c0.8-0.1,1.8-0.1,3.3-0.1V11.9z"/>
<path class="st1" d="M6.8,6.7h3 M6.8,9.7h5"/>
</svg>
