<?xml version="1.0" encoding="utf-8"?>
<!-- Generator: Adobe Illustrator 25.0.0, SVG Export Plug-In . SVG Version: 6.00 Build 0)  -->
<svg version="1.1" id="圖層_1" xmlns="http://www.w3.org/2000/svg" xmlns:xlink="http://www.w3.org/1999/xlink" x="0px" y="0px"
	 viewBox="0 0 24.9 25.1" style="enable-background:new 0 0 24.9 25.1;" xml:space="preserve">
<style type="text/css">
	.st0{fill:none;stroke:#2C2E33;stroke-width:1.5;stroke-linecap:round;stroke-linejoin:round;}
</style>
<path class="st0" d="M0.1,4.2c0.5,1.3,1.4,2.3,2.4,3"/>
<path class="st0" d="M11.4,8.5H7.9"/>
<path class="st0" d="M17.4,11.4c-0.3,0-0.5-0.2-0.5-0.5c0-0.3,0.2-0.5,0.5-0.5"/>
<path class="st0" d="M17.4,11.4c0.3,0,0.5-0.2,0.5-0.5c0-0.3-0.2-0.5-0.5-0.5"/>
<path class="st0" d="M18.9,1.5v4c3,1.3,3.6,3.4,3.6,6.2l1.7,1.4v4.3c-1,2.1-2.8,3.3-5.3,4.1v1.9c0,0.5-0.4,1-1,1h-3.4
	c-0.5,0-1-0.4-1-1v-1.9H7.5v1.8c0,0.5-0.4,1-1,1H3.1c-0.5,0-1-0.4-1-1c0-1.2,0-3,0-3.4c0-0.1-0.2-0.6-0.4-1.3
	c-0.7-2.2-1.8-6-0.2-9.6c1.3-3,4.6-5.3,11.6-4.9c1-2.7,3.7-3.4,5-3.3C18.6,0.8,18.9,1.1,18.9,1.5z"/>
</svg>
