<?xml version="1.0" encoding="utf-8"?>
<!-- Generator: Adobe Illustrator 25.0.0, SVG Export Plug-In . SVG Version: 6.00 Build 0)  -->
<svg version="1.1" id="圖層_1" xmlns="http://www.w3.org/2000/svg" xmlns:xlink="http://www.w3.org/1999/xlink" x="0px" y="0px"
	 viewBox="0 0 21.8 21.8" style="enable-background:new 0 0 21.8 21.8;" xml:space="preserve">
<style type="text/css">
	.st0{fill:none;stroke:#2C2E33;stroke-width:1.5;stroke-linecap:round;stroke-linejoin:round;}
</style>
<g>
	<path class="st0" d="M9.3,4.7H6.2c-0.9,0-1.6,0.7-1.6,1.6v3.1c0,0.9,0.7,1.6,1.6,1.6h3.1c0.9,0,1.6-0.7,1.6-1.6V6.2
		C10.9,5.4,10.2,4.7,9.3,4.7z"/>
	<path class="st0" d="M4.7,0.8H2.3c-0.4,0-0.8,0.2-1.1,0.5S0.8,1.9,0.8,2.3v2.3"/>
	<path class="st0" d="M17.1,0.8h2.3c0.4,0,0.8,0.2,1.1,0.5C20.9,1.5,21,1.9,21,2.3v2.3"/>
	<path class="st0" d="M4.7,21H2.3c-0.4,0-0.8-0.2-1.1-0.5c-0.3-0.3-0.5-0.7-0.5-1.1v-2.3"/>
	<path class="st0" d="M17.1,21h2.3c0.4,0,0.8-0.2,1.1-0.5c0.3-0.3,0.5-0.7,0.5-1.1v-2.3"/>
	<path class="st0" d="M4.7,14.8v2.3H7"/>
	<path class="st0" d="M10.9,17.1v-2.3H8.6"/>
	<path class="st0" d="M17.1,7h-2.3V4.7"/>
	<path class="st0" d="M17.1,12.5v-2.3h-2.3"/>
	<path class="st0" d="M14.8,14.8v2.3h2.3"/>
</g>
</svg>
