<svg width="24" height="24" viewBox="0 0 24 24" fill="none" xmlns="http://www.w3.org/2000/svg">
<path d="M20.2616 10.4617H3.76926C3.54925 10.4598 3.33139 10.5052 3.13037 10.5947C2.92937 10.6842 2.74991 10.8158 2.6041 10.9805C2.45828 11.1453 2.3495 11.3394 2.28511 11.5498C2.22071 11.7602 2.20219 11.982 2.23081 12.2002L3.35388 20.6616C3.40269 21.0341 3.58609 21.3759 3.86949 21.6224C4.15289 21.869 4.51671 22.0033 4.89234 22.0001H19.1077C19.4833 22.0033 19.8471 21.869 20.1305 21.6224C20.4139 21.3759 20.5973 21.0341 20.6462 20.6616L21.7693 12.2002C21.7974 11.9846 21.7797 11.7654 21.7171 11.5572C21.6545 11.3489 21.5485 11.1563 21.406 10.9921C21.2636 10.8278 21.0879 10.6956 20.8907 10.6042C20.6934 10.5128 20.479 10.4642 20.2616 10.4617Z" stroke="#2C2E33" stroke-width="1.5" stroke-linecap="round" stroke-linejoin="round"/>
<path d="M8.16931 14.3077V18.1539" stroke="#2C2E33" stroke-width="1.5" stroke-linecap="round" stroke-linejoin="round"/>
<path d="M12.0155 14.3077V18.1539" stroke="#2C2E33" stroke-width="1.5" stroke-linecap="round" stroke-linejoin="round"/>
<path d="M15.8615 14.3077V18.1539" stroke="#2C2E33" stroke-width="1.5" stroke-linecap="round" stroke-linejoin="round"/>
<path d="M15.8308 3.59986C16.7524 3.75908 17.5967 4.21492 18.2355 4.89807C18.8742 5.58121 19.2724 6.45428 19.3693 7.38447L19.7078 10.4614" stroke="#2C2E33" stroke-width="1.5" stroke-linecap="round" stroke-linejoin="round"/>
<path d="M4.323 10.4617L4.66146 7.38481C4.76472 6.46013 5.16564 5.59406 5.80384 4.91702C6.44204 4.23997 7.28294 3.78863 8.19991 3.63097" stroke="#2C2E33" stroke-width="1.5" stroke-linecap="round" stroke-linejoin="round"/>
<path d="M15.8616 3.92307C15.8616 4.17561 15.8119 4.42569 15.7152 4.65899C15.6186 4.89231 15.4769 5.10431 15.2983 5.28288C15.1198 5.46147 14.9078 5.60311 14.6744 5.69976C14.4411 5.7964 14.1911 5.84614 13.9385 5.84614H10.0924C9.58235 5.84614 9.09322 5.64353 8.73257 5.28288C8.37193 4.92224 8.16931 4.4331 8.16931 3.92307C8.16931 3.41304 8.37193 2.92391 8.73257 2.56326C9.09322 2.20261 9.58235 2 10.0924 2H13.9385C14.4486 2 14.9377 2.20261 15.2983 2.56326C15.659 2.92391 15.8616 3.41304 15.8616 3.92307Z" stroke="#2C2E33" stroke-width="1.5" stroke-linecap="round" stroke-linejoin="round"/>
</svg>
