<svg width="27" height="22" viewBox="0 0 27 22" fill="none" xmlns="http://www.w3.org/2000/svg">
<path d="M19.9615 5.46109C19.9615 4.85499 19.8421 4.25483 19.6102 3.69485C19.3783 3.1349 19.0383 2.6261 18.6097 2.19751C18.1811 1.76895 17.6723 1.42898 17.1124 1.19703C16.5524 0.965075 15.9522 0.845703 15.3461 0.845703H6.11538C5.14669 0.845703 4.20256 1.15048 3.41671 1.71688C2.63088 2.2833 2.04317 3.08259 1.73685 4.00157C1.43052 4.92055 1.42111 5.91262 1.70994 6.83725C1.99877 7.76187 2.57121 8.57219 3.34615 9.15339V19.3072C3.34615 19.7968 3.54066 20.2665 3.88687 20.6126C4.2331 20.9588 4.70267 21.1534 5.19231 21.1534H16.2692C16.7589 21.1534 17.2284 20.9588 17.5747 20.6126C17.9209 20.2665 18.1154 19.7968 18.1154 19.3072V9.15339C18.6897 8.72448 19.1557 8.16723 19.4762 7.52612C19.7969 6.88502 19.963 6.17785 19.9615 5.46109Z" stroke="url(#paint0_linear_2315_3000)" stroke-width="1.5" stroke-linecap="round" stroke-linejoin="round"/>
<path d="M9.80772 0.845703H20.8846C21.4907 0.845703 22.0909 0.965075 22.6509 1.19703C23.2108 1.42898 23.7196 1.76895 24.1483 2.19751C24.5768 2.6261 24.9168 3.1349 25.1487 3.69485C25.3806 4.25483 25.5 4.85499 25.5 5.46109C25.5015 6.17785 25.3353 6.88502 25.0147 7.52612C24.6942 8.16723 24.2282 8.72448 23.6539 9.15339V19.3072C23.6539 19.7968 23.4593 20.2665 23.1131 20.6126C22.767 20.9588 22.2973 21.1534 21.8077 21.1534H8.88464" stroke="url(#paint1_linear_2315_3000)" stroke-width="1.5" stroke-linecap="round" stroke-linejoin="round"/>
<path d="M23.6537 9.15332H18.1152" stroke="url(#paint2_linear_2315_3000)" stroke-width="1.5" stroke-linecap="round" stroke-linejoin="round"/>
<defs>
<linearGradient id="paint0_linear_2315_3000" x1="2.06254" y1="3.38416" x2="19.6703" y2="3.60509" gradientUnits="userSpaceOnUse">
<stop stop-color="#4E86E1"/>
<stop offset="1" stop-color="#394EC9"/>
</linearGradient>
<linearGradient id="paint1_linear_2315_3000" x1="9.39093" y1="3.38416" x2="25.2384" y2="3.56312" gradientUnits="userSpaceOnUse">
<stop stop-color="#4E86E1"/>
<stop offset="1" stop-color="#394EC9"/>
</linearGradient>
<linearGradient id="paint2_linear_2315_3000" x1="18.284" y1="9.27832" x2="23.5365" y2="9.67982" gradientUnits="userSpaceOnUse">
<stop stop-color="#4E86E1"/>
<stop offset="1" stop-color="#394EC9"/>
</linearGradient>
</defs>
</svg>
