<svg width="64" height="64" viewBox="0 0 64 64" fill="none" xmlns="http://www.w3.org/2000/svg">
<path d="M22.9047 15.2298L23.1598 16.4534C23.6373 16.3539 24.0133 15.9857 24.1228 15.5103L22.9047 15.2298ZM41.0953 15.2298L39.8772 15.5103C39.9867 15.9857 40.3627 16.3539 40.8402 16.4534L41.0953 15.2298ZM41.4939 15.3129L41.2387 16.5365L41.4939 15.3129ZM54.0324 27.2104L52.8237 27.5293L54.0324 27.2104ZM54.0324 42.123L52.8237 41.804L54.0324 42.123ZM41.4939 54.0205L41.749 55.2442L41.4939 54.0205ZM40.3291 54.2633L40.5843 55.487L40.3291 54.2633ZM23.6709 54.2633L23.926 53.0397H23.926L23.6709 54.2633ZM22.5061 54.0205L22.2509 55.2442H22.251L22.5061 54.0205ZM9.96763 42.123L11.1763 41.804L9.96763 42.123ZM9.96763 27.2104L11.1763 27.5293L9.96763 27.2104ZM22.5061 15.3129L22.2509 14.0892L22.2509 14.0892L22.5061 15.3129ZM13.8576 22.0993C14.2807 21.5538 14.1814 20.7686 13.6358 20.3455C13.0903 19.9225 12.3051 20.0218 11.882 20.5673L13.8576 22.0993ZM45.0885 54.1945C45.7234 53.9233 46.0182 53.1888 45.747 52.554C45.4758 51.9191 44.7413 51.6243 44.1064 51.8955L45.0885 54.1945ZM16.6732 16.2719C16.087 16.6364 15.9073 17.4072 16.2719 17.9935C16.6364 18.5797 17.4072 18.7594 17.9935 18.3948L16.6732 16.2719ZM48.4717 48.4277C47.9716 48.9036 47.9519 49.6948 48.4277 50.1949C48.9036 50.6951 49.6948 50.7148 50.1949 50.2389L48.4717 48.4277ZM8.88388 7.11612C8.39573 6.62796 7.60427 6.62796 7.11612 7.11612C6.62796 7.60427 6.62796 8.39573 7.11612 8.88388L8.88388 7.11612ZM55.1161 56.8839C55.6043 57.372 56.3957 57.372 56.8839 56.8839C57.372 56.3957 57.372 55.6043 56.8839 55.1161L55.1161 56.8839ZM29.6197 27.1144C28.9613 27.3218 28.5956 28.0237 28.8029 28.6822C29.0103 29.3407 29.7122 29.7064 30.3707 29.499L29.6197 27.1144ZM26.8013 33.1394C26.9955 32.4769 26.616 31.7824 25.9535 31.5882C25.291 31.3939 24.5965 31.7735 24.4023 32.436L26.8013 33.1394ZM37.1625 36.3124C36.953 36.9702 37.3164 37.6733 37.9743 37.8828C38.6321 38.0923 39.3351 37.7288 39.5446 37.071L37.1625 36.3124ZM34.2153 42.2689C34.8782 42.076 35.2592 41.3823 35.0663 40.7194C34.8734 40.0565 34.1797 39.6756 33.5168 39.8684L34.2153 42.2689ZM24.1228 15.5103C24.949 11.9236 28.1638 9.25 32 9.25V6.75C26.9736 6.75 22.7684 10.2528 21.6866 14.9492L24.1228 15.5103ZM32 9.25C35.8362 9.25 39.051 11.9236 39.8772 15.5103L42.3134 14.9492C41.2316 10.2528 37.0264 6.75 32 6.75V9.25ZM40.8402 16.4534L41.2387 16.5365L41.749 14.0892L41.3505 14.0061L40.8402 16.4534ZM41.2387 16.5365C46.8708 17.7108 51.3558 21.9666 52.8237 27.5293L55.241 26.8914C53.5314 20.4131 48.3081 15.4568 41.749 14.0892L41.2387 16.5365ZM52.8237 27.5293C54.0582 32.2075 54.0582 37.1259 52.8237 41.804L55.241 42.4419C56.5858 37.3456 56.5858 31.9877 55.241 26.8914L52.8237 27.5293ZM41.2387 52.7968L40.074 53.0397L40.5843 55.487L41.749 55.2442L41.2387 52.7968ZM40.074 53.0397C34.7486 54.15 29.2514 54.15 23.926 53.0397L23.4157 55.487C29.0777 56.6676 34.9223 56.6676 40.5843 55.487L40.074 53.0397ZM23.926 53.0397L22.7612 52.7968L22.251 55.2442L23.4157 55.487L23.926 53.0397ZM22.7612 52.7968C17.1292 51.6225 12.6442 47.3667 11.1763 41.804L8.759 42.4419C10.4686 48.9203 15.6919 53.8766 22.2509 55.2442L22.7612 52.7968ZM11.1763 41.804C9.94174 37.1259 9.94174 32.2075 11.1763 27.5293L8.759 26.8914C7.41415 31.9877 7.41415 37.3457 8.759 42.4419L11.1763 41.804ZM22.7612 16.5365L23.1598 16.4534L22.6495 14.0061L22.2509 14.0892L22.7612 16.5365ZM11.1763 27.5293C11.7063 25.5208 12.6293 23.6832 13.8576 22.0993L11.882 20.5673C10.4513 22.4123 9.3761 24.553 8.759 26.8914L11.1763 27.5293ZM44.1064 51.8955C43.1935 52.2855 42.2342 52.5892 41.2387 52.7968L41.749 55.2442C42.9076 55.0026 44.0248 54.6489 45.0885 54.1945L44.1064 51.8955ZM17.9935 18.3948C19.4625 17.4812 20.9665 16.9108 22.7612 16.5365L22.2509 14.0892C20.2086 14.515 18.4231 15.1836 16.6732 16.2719L17.9935 18.3948ZM52.8237 41.804C52.117 44.4821 50.5664 46.4348 48.4717 48.4277L50.1949 50.2389C52.4323 48.1103 54.3628 45.7697 55.241 42.4419L52.8237 41.804ZM7.11612 8.88388L55.1161 56.8839L56.8839 55.1161L8.88388 7.11612L7.11612 8.88388ZM32 40.0833C29.0085 40.0833 26.5833 37.6582 26.5833 34.6667H24.0833C24.0833 39.0389 27.6277 42.5833 32 42.5833V40.0833ZM32 29.25C34.9915 29.25 37.4167 31.6751 37.4167 34.6667H39.9167C39.9167 30.2944 36.3723 26.75 32 26.75V29.25ZM32 26.75C31.1726 26.75 30.3726 26.8774 29.6197 27.1144L30.3707 29.499C30.8834 29.3375 31.4303 29.25 32 29.25V26.75ZM24.4023 32.436C24.1944 33.145 24.0833 33.8939 24.0833 34.6667H26.5833C26.5833 34.1345 26.6597 33.6223 26.8013 33.1394L24.4023 32.436ZM37.4167 34.6667C37.4167 35.2425 37.3273 35.795 37.1625 36.3124L39.5446 37.071C39.7866 36.3112 39.9167 35.5029 39.9167 34.6667H37.4167ZM33.5168 39.8684C33.037 40.0081 32.5284 40.0833 32 40.0833V42.5833C32.7671 42.5833 33.5108 42.4739 34.2153 42.2689L33.5168 39.8684Z" fill="#2C2E33"/>
</svg>
