<svg width="80" height="80" viewBox="0 0 80 80" fill="none" xmlns="http://www.w3.org/2000/svg">
<path d="M35.2808 19.6719H24.8757C22.0024 19.6719 19.6731 22.0012 19.6731 24.8744V35.2796C19.6731 38.1528 22.0024 40.4821 24.8757 40.4821H35.2808C38.1541 40.4821 40.4834 38.1528 40.4834 35.2796V24.8744C40.4834 22.0012 38.1541 19.6719 35.2808 19.6719Z" stroke="white" stroke-width="5" stroke-linecap="round" stroke-linejoin="round"/>
<path d="M19.6732 6.66602H11.8693C10.4895 6.66602 9.16622 7.21414 8.19054 8.18981C7.21487 9.16548 6.66675 10.4888 6.66675 11.8686V19.6724" stroke="white" stroke-width="5" stroke-linecap="round" stroke-linejoin="round"/>
<path d="M61.2937 6.66602H69.0975C70.4773 6.66602 71.8008 7.21414 72.7763 8.18981C73.7518 9.16548 74.3001 10.4888 74.3001 11.8686V19.6724" stroke="white" stroke-width="5" stroke-linecap="round" stroke-linejoin="round"/>
<path d="M19.6732 74.2994H11.8693C10.4895 74.2994 9.16622 73.751 8.19054 72.7755C7.21487 71.8001 6.66675 70.4765 6.66675 69.0968V61.293" stroke="white" stroke-width="5" stroke-linecap="round" stroke-linejoin="round"/>
<path d="M61.2937 74.2994H69.0975C70.4773 74.2994 71.8008 73.751 72.7763 72.7755C73.7518 71.8001 74.3001 70.4765 74.3001 69.0968V61.293" stroke="white" stroke-width="5" stroke-linecap="round" stroke-linejoin="round"/>
<path d="M19.6731 53.4883V61.2921H27.4769" stroke="white" stroke-width="5" stroke-linecap="round" stroke-linejoin="round"/>
<path d="M40.4835 61.2921V53.4883H32.6797" stroke="white" stroke-width="5" stroke-linecap="round" stroke-linejoin="round"/>
<path d="M61.2936 27.4757H53.4897V19.6719" stroke="white" stroke-width="5" stroke-linecap="round" stroke-linejoin="round"/>
<path d="M61.2936 45.6847V37.8809H53.4897" stroke="white" stroke-width="5" stroke-linecap="round" stroke-linejoin="round"/>
<path d="M53.4897 53.4883V61.2921H61.2936" stroke="white" stroke-width="5" stroke-linecap="round" stroke-linejoin="round"/>
</svg>
