<svg width="65" height="64" viewBox="0 0 65 64" fill="none" xmlns="http://www.w3.org/2000/svg">
<path d="M21.86 44.7692C22.1471 46.1125 22.5081 47.439 22.9414 48.7425C23.3586 49.9333 23.9277 51.0654 24.6347 52.1105C25.2806 53.072 26.0718 53.9275 26.98 54.6465C27.8161 55.3114 28.7631 55.8232 29.7774 56.1585C30.6056 56.3869 31.4624 56.4947 32.3214 56.4785M30.4014 26.6372C31.7707 29.0292 30.28 33.5918 28.4814 36.9785C27.0981 39.8266 24.9577 42.2391 22.2947 43.9518C20.182 45.2403 17.7352 45.8745 15.2627 45.7745C13.0977 45.734 11.0074 44.9757 9.32003 43.6185C7.75847 42.2304 6.78046 40.3025 6.5827 38.2225C6.29213 35.7868 6.7903 33.3221 8.00403 31.1905C9.39436 28.8607 11.3906 26.9516 13.78 25.6665C16.1973 24.5006 18.8673 23.9562 21.548 24.0825C24.8 24.0238 29.032 24.2438 30.4014 26.6372ZM34.5987 26.6252C33.2294 29.0172 34.72 33.5812 36.5187 36.9678C37.902 39.8159 40.0424 42.2284 42.7054 43.9412C44.818 45.2296 47.2648 45.8638 49.7374 45.7638C51.903 45.7233 53.9938 44.9644 55.6814 43.6065C57.2424 42.2182 58.22 40.2903 58.4174 38.2105C58.7076 35.7753 58.2095 33.3111 56.996 31.1798C55.6057 28.85 53.6095 26.9409 51.22 25.6558C48.8029 24.4895 46.1329 23.9446 43.452 24.0705C40.2014 24.0118 35.9694 24.2332 34.5987 26.6252Z" stroke="#2C2E33" stroke-width="1.33333" stroke-linecap="round" stroke-linejoin="round"/>
<path d="M32.32 56.4794C33.1799 56.4959 34.0376 56.3881 34.8667 56.1594C35.8804 55.824 36.827 55.3122 37.6627 54.6474C38.5704 53.9284 39.3611 53.0729 40.0067 52.1114C40.7146 51.0664 41.2846 49.9344 41.7027 48.7434C42.1355 47.4399 42.496 46.1134 42.7827 44.7701H21.86M23.6587 50.1794H40.9467M27.6947 39.0448H37.3307M25.8613 24.0354C24.9287 22.6312 24.1135 21.1524 23.424 19.6141C23.0132 18.5764 22.9694 17.4294 23.3 16.3634C23.5959 14.9441 24.2309 13.6175 25.1507 12.4968C26.3615 11.1848 27.9378 10.2657 29.676 9.8581C31.5216 9.42141 33.4464 9.4466 35.28 9.93144C36.9643 10.324 38.4957 11.2042 39.6827 12.4621C40.591 13.5963 41.2236 14.9259 41.5307 16.3461C41.9024 17.4286 41.9066 18.6036 41.5427 19.6888C40.9043 21.1957 40.1136 22.6334 39.1827 23.9794M26.772 10.6141L23.728 7.52344M38.0733 10.6754L41.1173 7.5821" stroke="#2C2E33" stroke-width="1.33333" stroke-linecap="round" stroke-linejoin="round"/>
</svg>
