<?xml version="1.0" encoding="utf-8"?>
<!-- Generator: Adobe Illustrator 25.0.0, SVG Export Plug-In . SVG Version: 6.00 Build 0)  -->
<svg version="1.1" id="圖層_1" xmlns="http://www.w3.org/2000/svg" xmlns:xlink="http://www.w3.org/1999/xlink" x="0px" y="0px"
	 viewBox="0 0 36 36" style="enable-background:new 0 0 36 36;" xml:space="preserve">
<style type="text/css">
	.st0{fill:#071364;}
	.st1{fill:#C4D3FE;}
	.st2{fill:#FFD867;}
</style>
<g>
	<path class="st0" d="M18.7,28.6l-0.3,4.3c0,0.3-0.3,0.5-0.6,0.5c-0.1,0-0.2-0.1-0.3-0.2c-0.1-0.1-0.1-0.2-0.2-0.3L17,28.6
		c0-0.5,0.3-0.9,0.8-0.9c0.5,0,0.9,0.3,0.9,0.8C18.7,28.6,18.7,28.6,18.7,28.6z"/>
	<path class="st1" d="M32.2,8c0,0-0.1,0-0.2-0.1c-0.1,0-0.3-0.1-0.6-0.1c-0.1,0-0.3,0-0.4,0c-0.2,0-0.3,0-0.5,0
		c-0.2,0-0.3,0-0.5,0.1c-0.2,0-0.4,0.1-0.6,0.1c-0.4,0.1-0.9,0.2-1.3,0.4c-0.2,0.1-0.5,0.2-0.7,0.2c-0.1,0-0.2,0.1-0.4,0.1
		c-0.1,0-0.3,0.1-0.4,0.1c-0.1,0-0.3,0.1-0.4,0.1c-0.1,0-0.3,0.1-0.4,0.2c-0.1,0.1-0.3,0.1-0.4,0.2c-0.1,0.1-0.3,0.1-0.4,0.2
		c-0.1,0.1-0.3,0.1-0.4,0.2l-0.4,0.2C24.2,9.9,24,10,23.9,10l-0.4,0.2l-0.2,0.1l-0.2,0.1c-0.1,0.1-0.3,0.1-0.4,0.2
		c-0.1,0.1-0.3,0.2-0.4,0.2c-0.1,0.1-0.3,0.2-0.4,0.2c-0.1,0.1-0.3,0.2-0.4,0.2c-0.1,0.1-0.2,0.2-0.4,0.3c-0.1,0-0.1,0.1-0.2,0.1
		c-0.1,0-0.1,0.1-0.2,0.1c-0.1,0.1-0.2,0.2-0.4,0.3c-0.4,0.4-0.9,0.7-1.3,1.2c-0.4,0.4-0.7,0.8-1,1.2c-0.1,0.1-0.1,0.2-0.2,0.3
		c-0.1-0.1-0.1-0.2-0.2-0.3c-0.3-0.4-0.6-0.8-1-1.2c-0.4-0.4-0.8-0.8-1.3-1.2c-0.1-0.1-0.2-0.2-0.4-0.3L15,11.8
		c-0.1,0-0.1-0.1-0.2-0.1c-0.1-0.1-0.2-0.2-0.4-0.3c-0.1-0.1-0.3-0.2-0.4-0.2c-0.1-0.1-0.3-0.2-0.4-0.2c-0.1-0.1-0.3-0.2-0.4-0.2
		c-0.1-0.1-0.3-0.1-0.4-0.2l-0.2-0.1l-0.2-0.1L12.1,10C12,10,11.8,9.9,11.7,9.9c-0.1-0.1-0.3-0.1-0.4-0.2c-0.1-0.1-0.3-0.1-0.4-0.2
		c-0.1-0.1-0.3-0.1-0.4-0.2l-0.4-0.2C10,9.1,9.8,9.1,9.7,9C9.6,9,9.4,8.9,9.3,8.9L8.9,8.7c-0.1,0-0.2-0.1-0.4-0.1
		C8.3,8.5,8.1,8.5,7.8,8.4C7.4,8.3,6.9,8.1,6.5,8C6.3,8,6.1,7.9,5.9,7.9c-0.2,0-0.4,0-0.5-0.1c-0.2,0-0.3,0-0.5,0
		c-0.1,0-0.3,0-0.4,0C4.3,7.9,4.1,7.9,4,8C3.9,8,3.8,8,3.8,8C2.6,8.5,1.6,9.4,1,10.6c-1.3,2.6-0.3,5.8,2.4,7.2L3.8,18
		c0,0,0.1,0,0.2,0.1c0.1,0,0.3,0.1,0.4,0.1c0.1,0,0.2,0,0.3,0c0.1,0,0.2,0,0.4,0c0.1,0,0.3,0,0.4,0c0.1,0,0.3,0,0.5-0.1
		c0.2,0,0.3-0.1,0.5-0.1c0.2,0,0.4-0.1,0.5-0.1c0.2,0,0.4-0.1,0.6-0.1c0.1,0,0.2,0,0.3-0.1c0.1,0,0.2,0,0.3,0c0.1,0,0.2,0,0.3-0.1
		c0.1,0,0.2,0,0.3,0c0.1,0,0.2,0,0.3,0c0.1,0,0.2,0,0.3,0c0.1,0,0.2,0,0.3,0c0.1,0,0.2,0,0.3,0c0.1,0,0.2,0,0.3,0l0.3,0l0.2,0l0.2,0
		c0.1,0,0.2,0,0.3,0c0.1,0,0.2,0,0.3,0c0.1,0,0.2,0,0.3,0c0.4,0,0.8,0,1.2,0c0.1,0,0.2,0,0.3,0c0.1,0,0.2,0,0.3,0c0.1,0,0.2,0,0.3,0
		c0,0,0.1,0,0.1,0c0,0,0.1,0,0.1,0c0.3,0.1,0.7,0.1,1,0.2c0.1,0,0.3,0.1,0.4,0.1c0.1,0,0.1,0.1,0.2,0.1c0.1,0,0.1,0.1,0.2,0.1
		c0.3,0.1,0.5,0.2,0.7,0.3c0.1,0.1,0.2,0.1,0.3,0.2c0.1,0.1,0.2,0.1,0.2,0.1c0.1,0.1,0.2,0.1,0.2,0.1c0.2,0.1,0.5,0.1,0.7,0.1
		c0.2,0,0.5,0,0.7-0.1c0,0,0.1,0,0.2-0.1c0.1,0,0.1-0.1,0.2-0.1c0.1,0,0.2-0.1,0.3-0.2c0.2-0.1,0.4-0.2,0.7-0.3
		c0.3-0.1,0.5-0.2,0.8-0.3c0.3-0.1,0.6-0.2,1-0.2c0,0,0.1,0,0.1,0c0,0,0.1,0,0.1,0c0.1,0,0.2,0,0.3,0c0.1,0,0.2,0,0.3,0
		c0.1,0,0.2,0,0.3,0c0.4,0,0.8,0,1.2,0c0.1,0,0.2,0,0.3,0c0.1,0,0.2,0,0.3,0c0.1,0,0.2,0,0.3,0l0.2,0l0.2,0l0.3,0c0.1,0,0.2,0,0.3,0
		c0.1,0,0.2,0,0.3,0c0.1,0,0.2,0,0.3,0c0.1,0,0.2,0,0.3,0c0.1,0,0.2,0,0.3,0c0.1,0,0.2,0,0.3,0c0.1,0,0.2,0,0.3,0.1
		c0.1,0,0.2,0,0.3,0c0.1,0,0.2,0,0.3,0.1c0.2,0,0.4,0.1,0.6,0.1c0.2,0,0.4,0.1,0.5,0.1c0.2,0,0.3,0.1,0.5,0.1c0.2,0,0.3,0,0.5,0.1
		c0.1,0,0.3,0,0.4,0c0.1,0,0.3,0,0.4,0c0.1,0,0.2,0,0.3,0c0.2,0,0.3-0.1,0.4-0.1c0.1,0,0.2-0.1,0.2-0.1l0.4-0.2
		c1.1-0.6,2-1.5,2.5-2.8C36.3,12.2,34.9,9.1,32.2,8z"/>
	<path class="st2" d="M19.5,9.8c-0.5-0.3-1-0.4-1.6-0.4c-0.6,0-1.1,0.2-1.6,0.4c-3.5,2.1-5.8,5.9-5.8,10.3c0,4.4,2.3,8.2,5.8,10.3
		c0.9,0.6,2.1,0.6,3,0c3.5-2.1,5.8-5.9,5.8-10.3C25.2,15.7,22.9,11.9,19.5,9.8z"/>
	<path class="st0" d="M24.1,25.3c-0.6,1.3-1.4,2.4-2.5,3.4h-7.4c-1-1-1.8-2.1-2.5-3.4H24.1z M10.6,20.1c0,0.5,0,1,0.1,1.4h14.5
		c0.1-0.5,0.1-0.9,0.1-1.4c0-0.7-0.1-1.3-0.2-2H10.7C10.6,18.7,10.6,19.4,10.6,20.1z M12,14.3h11.7c-0.7-1.2-1.5-2.3-2.5-3.2
		c0.3-0.5,0.5-1.2,0.5-1.9c0-1.1-0.8-2.1-1.7-2.9c0,0,0,0,0,0c0.1-0.1,0.1-0.2,0.2-0.3c0.1-0.1,0.2-0.2,0.2-0.3
		c0.3-0.4,0.7-0.8,1-1.1c0.1-0.1,0.2-0.2,0.4-0.3c0,0,0.1-0.1,0.1-0.1c0,0,0.1-0.1,0.1-0.1c0.3-0.4,0.3-0.9-0.1-1.2
		c-0.4-0.3-0.9-0.3-1.2,0.1l0,0c0,0-0.1,0.1-0.1,0.2c-0.1,0.2-0.2,0.3-0.3,0.5c-0.3,0.4-0.6,0.9-0.9,1.5c-0.1,0.1-0.1,0.3-0.2,0.4
		c0,0.1-0.1,0.2-0.1,0.3c-0.8-0.4-1.8-0.4-2.6,0.1c0-0.1-0.1-0.3-0.2-0.4c-0.1-0.1-0.1-0.3-0.2-0.4c-0.3-0.6-0.6-1.1-0.9-1.5
		c-0.1-0.2-0.2-0.3-0.3-0.5c-0.1-0.1-0.1-0.2-0.1-0.2l0,0c0,0-0.1-0.1-0.1-0.1c-0.4-0.3-0.9-0.2-1.2,0.2c-0.3,0.4-0.2,0.9,0.2,1.2
		c0,0,0,0,0.1,0.1c0.1,0.1,0.2,0.2,0.4,0.3c0.3,0.3,0.7,0.7,1,1.1c0.1,0.1,0.2,0.2,0.2,0.3c0.1,0.1,0.1,0.2,0.2,0.3
		c0,0,0.1,0.1,0.1,0.1c-0.8,0.7-1.6,1.7-1.6,2.8c0,0.7,0.2,1.4,0.5,1.9C13.6,12,12.7,13.1,12,14.3z"/>
</g>
</svg>
