<svg width="20" height="20" viewBox="0 0 20 20" fill="none" xmlns="http://www.w3.org/2000/svg">
<path d="M2.40466 7.37396C2.9652 5.11653 4.75518 3.37111 7.02563 2.86802L7.40385 2.78421C9.114 2.40526 10.8863 2.40526 12.5965 2.78421L12.9747 2.86802C15.2452 3.37111 17.0351 5.11653 17.5957 7.37396C18.0239 9.09846 18.0239 10.9015 17.5957 12.626C17.0351 14.8835 15.2452 16.6289 12.9747 17.132L12.5965 17.2158C10.8863 17.5947 9.114 17.5947 7.40385 17.2158L7.02563 17.132C4.75517 16.6289 2.9652 14.8835 2.40466 12.626C1.97644 10.9015 1.97644 9.09846 2.40466 7.37396Z" stroke="url(#paint0_linear_2161_94792)" stroke-width="1.5"/>
<path fill-rule="evenodd" clip-rule="evenodd" d="M10.0002 5.83398C10.3188 5.83398 10.5771 6.07731 10.5771 6.37746V6.8221H10.641C11.7139 6.8221 12.5 7.70078 12.5 8.6831C12.5 8.98325 12.2417 9.22658 11.9231 9.22658C11.6045 9.22658 11.3462 8.98325 11.3462 8.6831C11.3462 8.21012 10.9842 7.90905 10.641 7.90905H10.5771V9.62002L11.3561 9.88685C12.0639 10.1293 12.5 10.7888 12.5 11.4872C12.5 12.3761 11.7876 13.1791 10.8055 13.1791H10.5771V13.6238C10.5771 13.924 10.3188 14.1673 10.0002 14.1673C9.68158 14.1673 9.42328 13.924 9.42328 13.6238V13.1791H9.35897C8.28606 13.1791 7.5 12.3005 7.5 11.3181C7.5 11.018 7.7583 10.7747 8.07692 10.7747C8.39555 10.7747 8.65385 11.018 8.65385 11.3181C8.65385 11.7911 9.01577 12.0922 9.35897 12.0922H9.42328V10.3814L8.64393 10.1144C7.93608 9.87191 7.5 9.21247 7.5 8.51407C7.5 7.6251 8.21243 6.8221 9.1945 6.8221H9.42328V6.37746C9.42328 6.07731 9.68158 5.83398 10.0002 5.83398ZM9.42328 7.90905H9.1945C8.94213 7.90905 8.65385 8.13445 8.65385 8.51407C8.65385 8.80437 8.83339 9.0227 9.03825 9.09287L9.42328 9.22477V7.90905ZM10.5771 10.7766V12.0922H10.8055C11.0579 12.0922 11.3462 11.8668 11.3462 11.4872C11.3462 11.1969 11.1666 10.9785 10.9618 10.9084L10.5771 10.7766Z" fill="url(#paint1_linear_2161_94792)"/>
<defs>
<linearGradient id="paint0_linear_2161_94792" x1="2.56595" y1="4.375" x2="17.6662" y2="4.59499" gradientUnits="userSpaceOnUse">
<stop stop-color="#4E86E1"/>
<stop offset="1" stop-color="#394EC9"/>
</linearGradient>
<linearGradient id="paint1_linear_2161_94792" x1="7.65235" y1="6.87565" x2="12.4216" y2="6.91514" gradientUnits="userSpaceOnUse">
<stop stop-color="#4E86E1"/>
<stop offset="1" stop-color="#394EC9"/>
</linearGradient>
</defs>
</svg>
